<svg width="16" height="16" viewBox="0 0 16 16" fill="none" xmlns="http://www.w3.org/2000/svg">
<path d="M15 7H1.66666V1.38C1.66666 1 2.02 0.666656 2.42331 0.666656H3.81666C4.21 0.666656 4.52666 0.986656 4.53 1.37666C3.88 1.54 3.33334 2.14 3.33334 2.77331V3.66666C3.33334 3.85 3.48334 4 3.66669 4H6C6.18334 4 6.33334 3.85 6.33334 3.66666V2.77334C6.33334 2.13 5.82334 1.54 5.19669 1.38C5.19669 0.62 4.58003 0 3.81669 0H2.42334C1.65334 0 1 0.633344 1 1.38V7C0.45 6.99666 0.00334375 7.44334 0 7.99334C0 8.28 0.12 8.55 0.333344 8.74V10.4867C0.333344 11.8433 0.936688 13.0067 1.91334 13.7633L1.36669 14.85C1.28334 15.0133 1.35003 15.2133 1.51669 15.2966C1.68003 15.38 1.88003 15.3133 1.96334 15.1466L2.47669 14.1233C3.15003 14.4833 3.90334 14.6699 4.66669 14.6633H11.3333C12.0967 14.6699 12.85 14.4833 13.5233 14.1233L14.0367 15.1466C14.12 15.31 14.32 15.3766 14.4833 15.2966C14.6467 15.2166 14.7133 15.0133 14.6333 14.85L14.0867 13.76C15.0633 13.0066 15.6667 11.84 15.6667 10.4833V8.73666C15.8767 8.55331 16 8.28331 16 8C16 7.44669 15.5533 7 15 7ZM4.86334 2C5.26 2 5.66669 2.39 5.66669 2.77334V3.33334H4V2.77334C4 2.40334 4.45 2 4.86334 2ZM15 10.4867C15 12.49 13.4233 14 11.3333 14H4.66666C2.57666 14 1 12.49 1 10.4867V9.00003H15V10.4867ZM15 8.33334H1.01C0.843344 8.33334 0.693344 8.21334 0.67 8.05C0.64 7.84334 0.8 7.66666 1 7.66666H14.99C15.1567 7.66666 15.3067 7.78666 15.33 7.95C15.36 8.15669 15.2 8.33334 15 8.33334Z" fill="#202020"/>
</svg>
