<svg width="16" height="15" viewBox="0 0 16 15" fill="none" xmlns="http://www.w3.org/2000/svg">
<path d="M14.9792 7.24734V2.21841C14.9792 0.995156 13.9841 0 12.7608 0H3.17537C1.95212 0 0.956969 0.995187 0.956969 2.21841V7.31222C0.364469 7.93166 0 8.77094 0 9.69375V13.507C0 14.2069 0.569469 14.7764 1.26947 14.7764C1.96944 14.7764 2.53891 14.2069 2.53891 13.507V13.1132H13.4611V13.507C13.4611 14.2069 14.0306 14.7764 14.7306 14.7764C15.4305 14.7764 16 14.207 16 13.507V9.69375C16 8.73828 15.6093 7.87241 14.9792 7.24734ZM3.17537 0.625H12.7608C13.6395 0.625 14.3542 1.33981 14.3542 2.21841V6.7555C14.1616 6.63683 13.9577 6.53748 13.7455 6.45891V5.41972C13.7455 4.49847 12.996 3.74897 12.0748 3.74897H9.35828C8.79903 3.74897 8.30344 4.02544 8.00003 4.44859C7.69663 4.02544 7.20103 3.74897 6.64178 3.74897H3.92528C3.00403 3.74897 2.25453 4.49844 2.25453 5.41972V6.45891C2.01871 6.54624 1.79319 6.65917 1.582 6.79569V2.21841C1.58197 1.33981 2.29675 0.625 3.17537 0.625ZM3.44791 6.24584C3.25431 6.24584 3.06444 6.26216 2.87947 6.29297V5.41972C2.87947 4.84309 3.34859 4.37397 3.92522 4.37397H6.64172C7.21834 4.37397 7.68747 4.84309 7.68747 5.41972V6.24588H3.44791V6.24584ZM8.3125 5.41969C8.3125 4.84306 8.78162 4.37394 9.35825 4.37394H12.0747C12.6514 4.37394 13.1205 4.84306 13.1205 5.41969V6.29294C12.9326 6.2616 12.7425 6.24584 12.5521 6.24581H8.3125V5.41969ZM3.44791 6.87084H12.5521C14.1086 6.87084 15.375 8.13719 15.375 9.69375V10.6208H12.2407C12.0681 10.6208 11.9282 10.7608 11.9282 10.9333C11.9282 11.1059 12.0681 11.2458 12.2407 11.2458H15.375V12.4882H0.625V11.2458H9.11572C9.28831 11.2458 9.42822 11.1059 9.42822 10.9333C9.42822 10.7608 9.28831 10.6208 9.11572 10.6208H0.625V9.69375C0.625 8.13719 1.89134 6.87084 3.44791 6.87084ZM1.91391 13.507C1.91391 13.8623 1.62481 14.1514 1.26947 14.1514C0.914125 14.1514 0.625 13.8623 0.625 13.507V13.1132H1.91391V13.507ZM14.7305 14.1514C14.3752 14.1514 14.0861 13.8623 14.0861 13.507V13.1132H15.375V13.507C15.375 13.8623 15.0859 14.1514 14.7305 14.1514Z" fill="#202020"/>
<path d="M10.678 11.246C10.8507 11.246 10.9907 11.106 10.9907 10.9333C10.9907 10.7607 10.8507 10.6207 10.678 10.6207C10.5053 10.6207 10.3654 10.7607 10.3654 10.9333C10.3654 11.106 10.5053 11.246 10.678 11.246Z" fill="#202020"/>
</svg>
