<svg width="15" height="14" viewBox="0 0 15 14" fill="none" xmlns="http://www.w3.org/2000/svg">
<path d="M1.83263 3.94667H1.16596M13.166 3.94667H12.4993M7.16596 0.613333V1.94667M6.16596 1.94667H8.16596M3.16596 8.61333H5.16596M9.16596 8.61333H11.166M9.50596 0.5H4.82596C3.16596 0.5 2.7993 1.32667 2.58596 2.34L1.83263 5.94667H12.4993L11.746 2.34C11.5326 1.32667 11.166 0.5 9.50596 0.5ZM13.826 11.8267C13.8993 12.6067 13.2726 13.28 12.4726 13.28H11.2193C10.4993 13.28 10.3993 12.9733 10.2726 12.5933L10.1393 12.1933C9.95263 11.6467 9.83263 11.28 8.87263 11.28H5.4593C4.4993 11.28 4.3593 11.6933 4.19263 12.1933L4.0593 12.5933C3.93263 12.9733 3.83263 13.28 3.11263 13.28H1.8593C1.0593 13.28 0.432629 12.6067 0.505962 11.8267L0.879295 7.76667C0.972629 6.76667 1.16596 5.94667 2.91263 5.94667H11.4193C13.166 5.94667 13.3593 6.76667 13.4526 7.76667L13.826 11.8267Z" stroke="#202020" stroke-linecap="round" stroke-linejoin="round"/>
</svg>
