<svg width="20" height="20" viewBox="0 0 20 20" fill="none" xmlns="http://www.w3.org/2000/svg">
<path d="M9.99999 11.1917C10.3414 11.1917 10.6795 11.1244 10.995 10.9938C11.3104 10.8631 11.597 10.6716 11.8385 10.4302C12.0799 10.1887 12.2714 9.90212 12.4021 9.58668C12.5327 9.27123 12.6 8.93314 12.6 8.5917C12.6 8.25026 12.5327 7.91217 12.4021 7.59672C12.2714 7.28128 12.0799 6.99465 11.8385 6.75322C11.597 6.51179 11.3104 6.32027 10.995 6.18961C10.6795 6.05895 10.3414 5.9917 9.99999 5.9917C9.31043 5.9917 8.64911 6.26563 8.16152 6.75322C7.67392 7.24082 7.39999 7.90214 7.39999 8.5917C7.39999 9.28126 7.67392 9.94258 8.16152 10.4302C8.64911 10.9178 9.31043 11.1917 9.99999 11.1917Z" stroke="#4460F7" stroke-width="1.5"/>
<path d="M3.01666 7.07496C4.65832 -0.141705 15.35 -0.133372 16.9833 7.08329C17.9417 11.3166 15.3083 14.9 13 17.1166C12.1934 17.8946 11.1165 18.3293 9.99583 18.3293C8.8752 18.3293 7.79826 17.8946 6.99166 17.1166C4.69166 14.9 2.05832 11.3083 3.01666 7.07496Z" stroke="#4460F7" stroke-width="1.5"/>
</svg>
