<svg width="18" height="18" viewBox="0 0 18 18" fill="none" xmlns="http://www.w3.org/2000/svg">
<path d="M17.1667 17.1667L15.5 15.5M8.41667 16.3333C9.4563 16.3333 10.4857 16.1286 11.4462 15.7307C12.4067 15.3329 13.2795 14.7497 14.0146 14.0146C14.7497 13.2795 15.3329 12.4067 15.7307 11.4462C16.1286 10.4857 16.3333 9.4563 16.3333 8.41667C16.3333 7.37704 16.1286 6.34758 15.7307 5.38709C15.3329 4.42659 14.7497 3.55387 14.0146 2.81874C13.2795 2.08361 12.4067 1.50047 11.4462 1.10262C10.4857 0.704771 9.4563 0.5 8.41667 0.5C6.31704 0.5 4.3034 1.33407 2.81874 2.81874C1.33407 4.3034 0.5 6.31704 0.5 8.41667C0.5 10.5163 1.33407 12.5299 2.81874 14.0146C4.3034 15.4993 6.31704 16.3333 8.41667 16.3333Z" stroke="#202020" stroke-linecap="round" stroke-linejoin="round"/>
</svg>
