<svg width="16" height="16" viewBox="0 0 16 16" fill="none" xmlns="http://www.w3.org/2000/svg">
<g clip-path="url(#clip0_576_355)">
<path d="M11.3134 8.16667V11.1667C11.3134 13.6667 10.3134 14.6667 7.81335 14.6667H4.81335C2.31335 14.6667 1.31335 13.6667 1.31335 11.1667V8.16667C1.31335 5.66667 2.31335 4.66667 4.81335 4.66667H7.81335C10.3134 4.66667 11.3134 5.66667 11.3134 8.16667Z" stroke="#202020" stroke-linecap="round" stroke-linejoin="round"/>
<path d="M14.6467 3.9V6.1C14.6467 7.93333 13.9134 8.66667 12.08 8.66667H11.3134V8.16667C11.3134 5.66667 10.3134 4.66667 7.81335 4.66667H7.31335V3.9C7.31335 2.06667 8.04669 1.33333 9.88002 1.33333H12.08C13.9134 1.33333 14.6467 2.06667 14.6467 3.9Z" stroke="#202020" stroke-linecap="round" stroke-linejoin="round"/>
</g>
<defs>
<clipPath id="clip0_576_355">
<rect width="16" height="16" fill="white"/>
</clipPath>
</defs>
</svg>
